<?xml version="1.0" encoding="utf-8"?>
<!-- Generator: Adobe Illustrator 27.9.1, SVG Export Plug-In . SVG Version: 6.00 Build 0)  -->
<svg version="1.1" id="Layer_1" xmlns="http://www.w3.org/2000/svg" xmlns:xlink="http://www.w3.org/1999/xlink" x="0px" y="0px"
	 viewBox="0 0 360 594.1" style="enable-background:new 0 0 360 594.1;" xml:space="preserve">
<style type="text/css">
	.st0{fill:#0E1011;}
</style>
<g>
	<g>
		<path class="st0" d="M179.5,0c74.3-0.8,144.7,49.7,167.8,125.1c2.6,8.4,0.5,11.6-8.2,11.8c-38.7,0.9-72.3-12.1-100-39.1
			c-25.4-24.8-55.4-39-91-38.5C101.8,60,65.9,80.6,40.8,119.7c-1.2,1.8-2.2,3.7-3.2,5.6c-1.7,2.9-4.3,4-7.5,3.6
			c-3.2-0.5-4.9-2.6-5.6-5.6c-3.6-16.3-1.6-31.9,7.1-46.2c7.5-12.3,17.8-21.6,31.6-26.6c1.6-0.6,2.7-1.5,3.6-3
			c8-14.2,20.1-23.7,34.8-30.5C126,5.8,151.4-0.4,179.5,0z"/>
	</g>
	<g>
		<path class="st0" d="M297.6,452.3c34.5-42.5,52.1-91.8,59.2-146.1c1.6,3.3,1.7,6,1.9,8.8c0.2,3,0.6,5.9,0.8,8.9
			c2.9,54.3-4.8,106.8-27.9,156.3c-17,36.4-40.5,67.7-74.5,90.2c-27.9,18.4-58.6,26.5-91.8,22.9c-33.5-3.7-61.9-18.9-86.2-41.9
			C42.7,517,21.7,474.1,9.6,426.3c-5.7-22.6-8.5-45.7-9.4-69c-0.6-15.4,0.6-30.7,1.5-46c0.1-1-0.3-2.4,1.7-3.2
			c7.3,53.3,24.8,102.2,59.2,144.4C108.6,371.1,252.7,371.4,297.6,452.3z M126.4,501.5c1.5-10.8,7-18.5,14.9-24.8
			c2.1-1.7,3.5-1.3,5.6-0.2c22.1,12.1,44.4,12.2,66.5,0c2.5-1.4,4-1.3,6,0.4c6.9,5.6,12.1,12.3,13.9,21.1c0.7,3.5,1.9,3,4.2,1.9
			c9.4-4.5,18.3-9.9,26.7-16c1.7-1.3,2.5-2.3,1.9-4.8c-3.4-15.7-12.4-27.6-24.8-37.1c-31.3-23.9-79-26.4-113.6-6
			c-16.7,9.8-29,23.3-33.7,42.7c-0.6,2.3-0.3,3.6,1.6,5C105.1,490.6,115,496.7,126.4,501.5z"/>
		<path class="st0" d="M209.2,461.9h-58.5c-5.1,0-9.2-4.1-9.2-9.2v0c0-5.1,4.1-9.2,9.2-9.2h58.5c5.1,0,9.2,4.1,9.2,9.2v0
			C218.4,457.8,214.3,461.9,209.2,461.9z"/>
	</g>
</g>
</svg>
