<?xml version="1.0" encoding="utf-8"?>
<!-- Generator: Adobe Illustrator 27.9.1, SVG Export Plug-In . SVG Version: 6.00 Build 0)  -->
<svg version="1.1" id="Layer_1" xmlns="http://www.w3.org/2000/svg" xmlns:xlink="http://www.w3.org/1999/xlink" x="0px" y="0px"
	 viewBox="0 0 357.1 107" style="enable-background:new 0 0 357.1 107;" xml:space="preserve">
<style type="text/css">
	.st0{fill:#0E1011;}
</style>
<g>
	<path class="st0" d="M178.1,0.1c57.8,0,115.5,0,173.3-0.1c4.2,0,5.8,0.9,5.7,5.4c-0.4,15,0.8,30-3.8,44.7
		c-11.1,35.9-44.8,58.7-84.1,56.6c-34.6-1.9-65.7-29.9-72.4-65c-0.5-2.6-1-5.2-1.8-7.7c-2.4-7.6-9.8-12.8-17.2-12.4
		c-8.3,0.5-15,6.4-16.4,14.6c-6,34.6-25.3,58-59.3,67.8C55.6,117.3,7.3,85.2,1,37.7C-0.6,26.2,0.5,14.6,0,3
		c-0.1-3.6,2.3-2.9,4.3-2.9c15.6,0,31.1,0,46.7,0C93.3,0.1,135.7,0.1,178.1,0.1z"/>
</g>
</svg>
