<?xml version="1.0" encoding="utf-8"?>
<!-- Generator: Adobe Illustrator 27.9.1, SVG Export Plug-In . SVG Version: 6.00 Build 0)  -->
<svg version="1.1" id="Calque_1" xmlns="http://www.w3.org/2000/svg" xmlns:xlink="http://www.w3.org/1999/xlink" x="0px" y="0px"
	 viewBox="0 0 2500 2500" style="enable-background:new 0 0 2500 2500;" xml:space="preserve">
<style type="text/css">
	.st0{fill:#FFFFFF;}
</style>
<path id="behance" class="st0" d="M744.7,470c74.2,0,142,6.6,203.3,19.7s113.6,34.6,157.3,64.4c43.7,29.9,77.5,69.5,101.6,119.1
	C1231,722.8,1243,784,1243,856.8c0,78.6-17.9,144.2-53.6,196.6c-35.7,52.5-88.5,95.4-158.4,128.9c96.1,27.7,167.9,76.2,215.2,145.3
	c47.4,69.1,71.1,152.6,71.1,250.2c0,78.6-15.3,146.8-45.9,204.4c-30.6,57.6-71.7,104.5-123.5,140.9c-51.8,36.5-110.7,63.3-177,80.8
	c-66.7,17.5-135.4,26.3-204.2,26.2H10.6V470H744.7z M701.1,1101.4c61.1,0,111.4-14.6,150.8-43.7c39.4-29.2,59.1-76.4,58.9-142
	c0-36.4-6.6-66.2-19.7-89.5c-13.1-23.3-30.6-41.6-52.5-54.7c-21.9-13.1-47-22.2-75.3-27.3c-29.2-5.1-58.8-7.7-88.5-7.6h-321v364.9
	L701.1,1101.4L701.1,1101.4z M720.8,1763.4c32.4,0.1,64.6-3.2,96.1-9.8c30.6-6.6,57.6-17.5,80.8-32.8c23.3-15.3,41.9-36.1,55.8-62.2
	c13.8-26.2,20.8-59.8,20.8-100.5c0-80-22.6-137.3-67.8-171.4c-45.2-34.3-104.9-51.4-179.2-51.4H353.8v428.3L720.8,1763.4
	L720.8,1763.4z M1748.9,1730.6c46.5,45.2,113.6,67.8,201.1,67.8c62.7,0,116.5-15.7,161.7-47s72.8-64.4,83-99.4h273.1
	c-43.7,135.5-110.7,232.3-201.1,290.6c-90.3,58.3-199.5,87.4-327.7,87.4c-88.8,0-169-14.2-240.3-42.6
	c-71.3-28.4-131.8-68.9-181.4-121.3c-49.6-52.5-87.9-115-114.7-187.8c-26.9-72.8-40.3-153-40.3-240.3c0-84.4,13.8-163,41.5-235.9
	c27.7-72.8,67.1-135.8,118-188.9c51-53.2,111.8-95,182.5-125.6s149-45.9,234.9-45.9c96.1,0,179.8,18.6,251.3,55.8
	c71.3,37.2,130,87,175.9,149.7s79,134,99.4,214.1c20.4,80.1,27.7,163.9,21.9,251.3h-815C1676.9,1612.7,1702.4,1685.6,1748.9,1730.6
	L1748.9,1730.6z M2099.6,1136.4c-37.2-40.8-93.6-61.1-169.4-61.1c-49.6,0-90.7,8.4-123.4,25.1c-32.8,16.8-58.9,37.5-78.6,62.2
	c-19.7,24.8-33.5,51-41.5,78.6c-8,27.7-12.8,52.5-14.2,74.2h504.7C2162.6,1236.9,2136.7,1177.1,2099.6,1136.4L2099.6,1136.4z
	 M1619.5,549.2H2250v174.9h-630.6V549.2z"/>
</svg>
