<?xml version="1.0" encoding="utf-8"?>
<!-- Generator: Adobe Illustrator 27.9.1, SVG Export Plug-In . SVG Version: 6.00 Build 0)  -->
<svg version="1.1" id="Arrow_1_" xmlns="http://www.w3.org/2000/svg" xmlns:xlink="http://www.w3.org/1999/xlink" x="0px" y="0px"
	 viewBox="0 0 1696.2 1696.9" style="enable-background:new 0 0 1696.2 1696.9;" xml:space="preserve">
<style type="text/css">
	.st0{fill:#FFFFFF;}
</style>
<g>
	<path id="behance" class="st0" d="M654.4,549.4c28.4,0,54.4,2.5,77.9,7.6c23.5,5,43.5,13.3,60.3,24.7
		c16.8,11.5,29.7,26.6,38.9,45.7s13.8,42.5,13.8,70.4c0,30.1-6.9,55.3-20.5,75.4c-13.7,20.1-33.9,36.6-60.7,49.4
		c36.8,10.6,64.4,29.2,82.5,55.7c18.2,26.5,27.3,58.5,27.3,95.9c0,30.1-5.9,56.3-17.6,78.4c-11.7,22.1-27.5,40.1-47.3,54
		c-19.9,14-42.4,24.3-67.9,31c-25.6,6.7-51.9,10.1-78.3,10H372.9V549.4H654.4z M637.7,791.5c23.4,0,42.7-5.6,57.8-16.8
		c15.1-11.2,22.7-29.3,22.6-54.4c0-14-2.5-25.4-7.6-34.3c-5-8.9-11.7-15.9-20.1-21c-8.4-5-18-8.5-28.9-10.5c-11.2-2-22.5-3-33.9-2.9
		H504.5v139.9L637.7,791.5L637.7,791.5z M645.2,1045.2c12.4,0,24.8-1.2,36.8-3.8c11.7-2.5,22.1-6.7,31-12.6
		c8.9-5.9,16.1-13.8,21.4-23.8c5.3-10,8-22.9,8-38.5c0-30.7-8.7-52.6-26-65.7c-17.3-13.1-40.2-19.7-68.7-19.7H504.5v164.2
		L645.2,1045.2L645.2,1045.2z M1039.3,1032.7c17.8,17.3,43.5,26,77.1,26c24,0,44.7-6,62-18c17.3-12,27.9-24.7,31.8-38.1h104.7
		c-16.8,51.9-42.4,89.1-77.1,111.4c-34.6,22.3-76.5,33.5-125.6,33.5c-34,0-64.8-5.4-92.1-16.3c-27.3-10.9-50.5-26.4-69.5-46.5
		c-19-20.1-33.7-44.1-44-72c-10.3-27.9-15.4-58.7-15.4-92.1c0-32.4,5.3-62.5,15.9-90.4c10.6-27.9,25.7-52.1,45.2-72.4
		c19.6-20.4,42.9-36.4,70-48.1c27.1-11.7,57.1-17.6,90-17.6c36.8,0,68.9,7.1,96.3,21.4c27.3,14.3,49.8,33.4,67.4,57.4
		s30.3,51.4,38.1,82.1c7.8,30.7,10.6,62.8,8.4,96.3h-312.4C1011.7,987.5,1021.5,1015.4,1039.3,1032.7L1039.3,1032.7z M1173.8,804.9
		c-14.3-15.6-35.9-23.4-64.9-23.4c-19,0-34.8,3.2-47.3,9.6c-12.6,6.4-22.6,14.4-30.1,23.8c-7.6,9.5-12.8,19.6-15.9,30.1
		c-3.1,10.6-4.9,20.1-5.4,28.4h193.5C1197.9,843.4,1188,820.5,1173.8,804.9L1173.8,804.9z M989.7,579.8h241.7v67H989.7L989.7,579.8
		L989.7,579.8z"/>
</g>
</svg>
