<?xml version="1.0" encoding="utf-8"?>
<!-- Generator: Adobe Illustrator 27.9.1, SVG Export Plug-In . SVG Version: 6.00 Build 0)  -->
<svg version="1.1" id="Arrow_1_" xmlns="http://www.w3.org/2000/svg" xmlns:xlink="http://www.w3.org/1999/xlink" x="0px" y="0px"
	 viewBox="0 0 1696.8 1696.9" style="enable-background:new 0 0 1696.8 1696.9;" xml:space="preserve">
<style type="text/css">
	.st0{fill:#FFFFFF;}
</style>
<g>
	<path id="Pinterest_Icon_00000047038322578217994260000004729356040308708013_" class="st0" d="M872,356.9
		c-272.1,0-409.5,192.3-409.5,352.6c0,97.3,37.4,183.3,117.2,215.6c13.2,5.4,24.9,0.4,28.8-14c2.7-9.7,14.8-35,17.5-45.2
		c3.9-14,2.3-19.1-8.2-31.5c-23-26.9-37.4-54.9-37.4-103.9c0-163.5,102-279.9,275.6-279.9c153.7,0,238.2,95.4,238.2,219.1
		c0,162.7-73.2,295-181.8,295c-59.9,0-104.7-43.6-90.3-103.5c17.1-71.6,50.6-148.7,50.6-200.5c0-46.3-24.9-79.4-77.1-79.4
		c-61.1,0-110.5,57.2-110.5,140.9c0,53.3,17.5,79.8,17.5,79.8s-61.9,271.3-73.2,317.2c-21.8,91.5-3.1,203.2-1.6,214.5
		c0.8,6.6,9.7,8.2,13.6,3.1c5.4-7,78.6-96.1,103.5-184.9c7-24.9,40.5-154.9,40.5-154.9c19.9,37.4,78.2,61.5,139.7,61.5
		c184.1,0,309.1-156.9,309.1-377.9C1234.7,513,1090.7,356.9,872,356.9L872,356.9z"/>
</g>
</svg>
