<?xml version="1.0" encoding="utf-8"?>
<!-- Generator: Adobe Illustrator 27.9.1, SVG Export Plug-In . SVG Version: 6.00 Build 0)  -->
<svg version="1.1" id="Arrow_1_" xmlns="http://www.w3.org/2000/svg" xmlns:xlink="http://www.w3.org/1999/xlink" x="0px" y="0px"
	 viewBox="0 0 1696.2 1696.9" style="enable-background:new 0 0 1696.2 1696.9;" xml:space="preserve">
<style type="text/css">
	.st0{fill:#FFFFFF;}
</style>
<g>
	<path class="st0" d="M356.6,848.5c0-89.1,21.9-171.4,65.9-246.8s103.5-135,178.9-178.9s157.6-65.9,246.8-65.9
		s171.4,21.9,246.8,65.9s135,103.5,178.9,178.9c43.9,75.4,65.9,157.6,65.9,246.8s-21.9,171.4-65.9,246.8
		c-43.9,75.4-103.5,135-178.9,178.9c-75.4,43.9-157.6,65.9-246.8,65.9s-171.4-21.9-246.8-65.9c-75.4-43.9-135-103.5-178.9-178.9
		S356.6,937.6,356.6,848.5z M438.2,848.5c0,102.2,34.4,192.4,103.2,270.4c31.5-61.6,81.3-120.3,149.4-176s134.7-90.8,199.6-105.2
		c-9.8-22.9-19.3-43.6-28.5-61.9c-112.7,36.1-234.6,54.1-365.7,54.1c-25.6,0-44.6-0.3-57-1c0,2.6-0.2,5.9-0.5,9.8
		C438.3,842.6,438.2,845.8,438.2,848.5z M450.9,747.2c14.4,1.3,35.7,2,63.9,2c109.4,0,213.3-14.7,311.6-44.2
		C776.7,616.4,722,542.7,662.3,483.7c-51.8,26.2-96.2,62.6-133.2,109.1C492.1,639.4,466,690.8,450.9,747.2z M597.4,1171.9
		c74,57.7,157.6,86.5,250.7,86.5c48.5,0,96.7-9.2,144.5-27.5c-13.1-112.1-38.7-220.5-76.7-325.4c-60.3,13.1-121.1,46.2-182.4,99.3
		C672.3,1057.9,626.9,1113.6,597.4,1171.9z M747.8,452.3c57.7,59.7,111.1,134,160.2,223.2c89.1-37.4,156.3-84.9,201.5-142.5
		c-76-62.9-163.2-94.4-261.5-94.4C814.7,438.5,781.3,443.1,747.8,452.3z M943.5,745.2c9.8,21,21,47.5,33.4,79.6
		c48.5-4.6,101.3-6.9,158.3-6.9c40.6,0,80.9,1,120.9,2.9c-5.2-89.1-37.4-168.4-96.3-237.9C1117.2,646.6,1045,700.7,943.5,745.2z
		 M1001.5,893.7c33.4,97,56,196.6,67.8,298.9c51.8-33.4,94.1-76.4,126.8-128.8s52.4-109.1,59-170.1c-47.9-3.3-91.4-4.9-130.8-4.9
		C1088.3,888.8,1047.4,890.4,1001.5,893.7z"/>
</g>
</svg>
