<?xml version="1.0" encoding="utf-8"?>
<!-- Generator: Adobe Illustrator 27.9.1, SVG Export Plug-In . SVG Version: 6.00 Build 0)  -->
<svg version="1.1" id="Arrow_1_" xmlns="http://www.w3.org/2000/svg" xmlns:xlink="http://www.w3.org/1999/xlink" x="0px" y="0px"
	 viewBox="0 0 1696.2 1696.9" style="enable-background:new 0 0 1696.2 1696.9;" xml:space="preserve">
<style type="text/css">
	.st0{fill:#FFFFFF;}
</style>
<g>
	<path class="st0" d="M684.3,848.5c0-90.5,73.3-163.9,163.8-163.9S1012,758,1012,848.5s-73.4,163.9-163.9,163.9
		S684.3,938.9,684.3,848.5 M595.7,848.5c0,139.4,113,252.4,252.4,252.4s252.4-113,252.4-252.4S987.5,596,848.1,596
		S595.7,709.1,595.7,848.5 M1051.6,586c0,32.6,26.4,59,58.9,59c32.6,0,59-26.4,59-58.9c0-32.6-26.4-59-58.9-59h0
		C1078,527.1,1051.6,553.5,1051.6,586 M649.5,1248.6c-47.9-2.2-74-10.2-91.3-16.9c-23-8.9-39.3-19.6-56.5-36.8s-27.9-33.5-36.8-56.5
		c-6.8-17.3-14.7-43.4-16.9-91.3c-2.4-51.8-2.9-67.4-2.9-198.7s0.5-146.8,2.9-198.7c2.2-47.9,10.2-73.9,16.9-91.3
		c8.9-23,19.6-39.3,36.8-56.5c17.2-17.2,33.5-27.9,56.5-36.8c17.3-6.8,43.4-14.7,91.3-16.9c51.8-2.4,67.4-2.9,198.6-2.9
		s146.8,0.5,198.7,2.9c47.9,2.2,73.9,10.2,91.3,16.9c23,8.9,39.3,19.6,56.5,36.8c17.2,17.2,27.8,33.6,36.8,56.5
		c6.8,17.3,14.7,43.4,16.9,91.3c2.4,51.9,2.9,67.4,2.9,198.7s-0.5,146.8-2.9,198.7c-2.2,47.9-10.2,74-16.9,91.3
		c-8.9,23-19.6,39.3-36.8,56.5c-17.2,17.2-33.6,27.8-56.5,36.8c-17.3,6.8-43.4,14.7-91.3,16.9c-51.8,2.4-67.4,2.9-198.7,2.9
		S701.3,1250.9,649.5,1248.6 M645.5,359.9c-52.3,2.4-88.1,10.7-119.3,22.8c-32.4,12.5-59.7,29.4-87.1,56.7
		c-27.4,27.3-44.2,54.7-56.7,87.1c-12.2,31.3-20.4,67-22.8,119.3c-2.4,52.4-2.9,69.2-2.9,202.7s0.6,150.3,3,202.6
		c2.4,52.3,10.7,88,22.8,119.3c12.5,32.3,29.3,59.8,56.7,87.1c27.4,27.3,54.7,44.1,87.1,56.7c31.3,12.2,67,20.4,119.3,22.8
		c52.4,2.4,69.2,3,202.6,3s150.3-0.6,202.6-3c52.3-2.4,88-10.7,119.3-22.8c32.3-12.6,59.7-29.4,87.1-56.7
		c27.3-27.3,44.1-54.7,56.7-87.1c12.2-31.3,20.5-67,22.8-119.3c2.4-52.5,2.9-69.2,2.9-202.6s-0.6-150.3-2.9-202.6
		c-2.4-52.3-10.7-88.1-22.8-119.3c-12.6-32.3-29.4-59.7-56.7-87.1s-54.7-44.2-87-56.7c-31.3-12.2-67-20.5-119.3-22.8
		c-52.4-2.4-69.2-2.9-202.7-2.9S697.9,357.5,645.5,359.9"/>
</g>
</svg>
